<?xml version="1.0" encoding="UTF-8" standalone="no"?>
<svg
   xmlns="http://www.w3.org/2000/svg"
   width="30"
   height="30"
   viewBox="0 0 7.9374998 7.9375002"
   stroke="#ffffff"
   fill="none"
   id="svgSawtooth">
    <path
       style="stroke-width:0.79375;stroke-linecap:butt;stroke-linejoin:round;stroke-miterlimit:4;stroke-dasharray:none;stroke-opacity:1"
       d="M 3.7417734,11.987038 H 4.9110776 L 5.6182722,9.3477517 7.0371376,14.643029 8.4560028,9.3477517 9.8748682,14.643029 10.586539,11.987038 h 1.089798"
       id="path1410" />
    <path
       style="stroke-width:0.79375;stroke-linecap:butt;stroke-linejoin:round;stroke-miterlimit:4;stroke-dasharray:none;stroke-opacity:1"
       d="M 9.9858577,10.162924 H 10.734212 V 7.5236372 h 1.800729 l -0.04677,5.2952778 h 2.876488 V 7.5236372 h 1.800728 v 2.6392868 h 0.724969"
       id="path1432" />
    <path
       style="stroke-width:0.79375;stroke-linecap:butt;stroke-linejoin:round;stroke-miterlimit:4;stroke-dasharray:none;stroke-opacity:1"
       d="m 0.02338608,3.9422254 h 0.7015825 l 1.82972662,-2.639286 -0.00769,5.295277 3.1962076,-5.295277 0.0157,5.295277 1.4834115,-2.655991 h 0.7156209"
       id="path1410-7" />
    <path
       style="stroke-width:0.79375;stroke-linecap:butt;stroke-linejoin:round;stroke-miterlimit:4;stroke-dasharray:none;stroke-opacity:1"
       d="M 8.5593066,14.769982 H 9.214117 c 0.6692874,0 0.3910004,-2.639287 1.406862,-2.639287 1.063371,0 0.620495,5.295278 1.933359,5.295278 1.381148,0 0.776445,-5.271891 1.839815,-5.271891 1.039248,0 0.579622,2.639286 1.289932,2.639286 0.462586,0 0.896648,-0.02339 0.896648,-0.02339"
       id="path1456" />
</svg>
