<?xml version="1.0" encoding="UTF-8" standalone="no"?>
<svg
   xmlns="http://www.w3.org/2000/svg"
   width="30"
   height="30"
   viewBox="0 0 7.9374998 7.9375002"
   stroke="#ffffff"
   fill="none"
   id="svgSine">
    <path
       style="stroke-width:0.79375;stroke-linecap:butt;stroke-linejoin:round;stroke-miterlimit:4;stroke-dasharray:none;stroke-opacity:1"
       d="M 3.7417734,11.987038 H 4.9110776 L 5.6182722,9.3477517 7.0371376,14.643029 8.4560028,9.3477517 9.8748682,14.643029 10.586539,11.987038 h 1.089798"
       id="path1410" />
    <path
       style="stroke-width:0.79375;stroke-linecap:butt;stroke-linejoin:round;stroke-miterlimit:4;stroke-dasharray:none;stroke-opacity:1"
       d="M 9.9858577,10.162924 H 10.734212 V 7.5236372 h 1.800729 l -0.04677,5.2952778 h 2.876488 V 7.5236372 h 1.800728 v 2.6392868 h 0.724969"
       id="path1432" />
    <path
       style="stroke-width:0.79375;stroke-linecap:butt;stroke-linejoin:round;stroke-miterlimit:4;stroke-dasharray:none;stroke-opacity:1"
       d="m -1.8708867,15.962672 0.7015825,0 1.8297266,-2.639286 -0.00769,5.295277 3.1962076,-5.295277 0.0157,5.295277 1.4834115,-2.655991 0.7156209,0"
       id="path1410-7" />
    <path
       style="stroke-width:0.79375;stroke-linecap:butt;stroke-linejoin:round;stroke-miterlimit:4;stroke-dasharray:none;stroke-opacity:1"
       d="m -0.02338608,3.9422253 h 0.65481032 c 0.66928746,-10e-8 0.39100046,-2.6392866 1.40686236,-2.6392866 1.0633702,0 0.6204947,5.2952775 1.9333591,5.2952775 1.3811477,0 0.7764447,-5.2718914 1.8398149,-5.2718914 1.039248,0 0.5796218,2.6392865 1.289932,2.6392866 0.4625852,0 0.8966479,-0.023386 0.8966479,-0.023386"
       id="path1456" />
</svg>
