<?xml version="1.0" encoding="UTF-8" standalone="no"?>
<svg
   xmlns="http://www.w3.org/2000/svg"
   width="16"
   height="16"
   viewBox="0 0 7.9374998 7.9375002"
   fill="none"
   stroke="#ffffff"
   id="svgTriangle">
    <path
       style="stroke-width:0.79375;stroke-linecap:butt;stroke-linejoin:round;stroke-miterlimit:4;stroke-dasharray:none;stroke-opacity:1"
       d="M 0,3.9422252 H 1.1693042 L 1.8764988,1.3029389 3.2953642,6.5982162 4.7142294,1.3029389 6.1330948,6.5982162 6.8447656,3.9422252 h 1.089798"
       id="path1410" />
    <path
       style="stroke-width:0.79375;stroke-linecap:butt;stroke-linejoin:round;stroke-miterlimit:4;stroke-dasharray:none;stroke-opacity:1"
       d="M 9.9858577,10.162924 H 10.734212 V 7.5236372 h 1.800729 l -0.04677,5.2952778 h 2.876488 V 7.5236372 h 1.800728 v 2.6392868 h 0.724969"
       id="path1432" />
    <path
       style="stroke-width:0.79375;stroke-linecap:butt;stroke-linejoin:round;stroke-miterlimit:4;stroke-dasharray:none;stroke-opacity:1"
       d="m 10.336649,3.3108011 h 0.701582 l 1.829727,-2.63928596 -0.0077,5.29527696 3.196208,-5.29527696 0.0157,5.29527696 1.483411,-2.655991 h 0.715621"
       id="path1410-7" />
    <path
       style="stroke-width:0.79375;stroke-linecap:butt;stroke-linejoin:round;stroke-miterlimit:4;stroke-dasharray:none;stroke-opacity:1"
       d="M 8.5593066,14.769982 H 9.214117 c 0.6692874,0 0.3910004,-2.639287 1.406862,-2.639287 1.063371,0 0.620495,5.295278 1.933359,5.295278 1.381148,0 0.776445,-5.271891 1.839815,-5.271891 1.039248,0 0.579622,2.639286 1.289932,2.639286 0.462586,0 0.896648,-0.02339 0.896648,-0.02339"
       id="path1456" />
</svg>
